<?xml version="1.0" encoding="UTF-8" standalone="no"?>
<!DOCTYPE svg PUBLIC "-//W3C//DTD SVG 1.1//EN" "http://www.w3.org/Graphics/SVG/1.1/DTD/svg11.dtd">
<svg width="100%" height="100%" viewBox="0 0 1122 256" version="1.1" xmlns="http://www.w3.org/2000/svg" xmlns:xlink="http://www.w3.org/1999/xlink" xml:space="preserve" xmlns:serif="http://www.serif.com/" style="fill-rule:evenodd;clip-rule:evenodd;stroke-linejoin:round;stroke-miterlimit:2;">
    <g transform="matrix(1,0,0,1,-11465.2,-6274.12)">
        <g transform="matrix(1,0,0,1,11019,5721.48)">
            <g transform="matrix(1,0,0,1,1111.74,784.529)">
                <path d="M0,-165.878L-26.207,-42.549L9.25,-42.549L35.457,-165.878L0,-165.878ZM77.389,-52.415C75.331,-42.342 70.553,-34.273 63.051,-28.212C55.546,-22.148 46.865,-19.116 36.999,-19.116L-31.141,-19.116L-40.082,23.432L-105.754,23.432L-60.74,-189.31L79.239,-189.31C87.255,-189.31 93.161,-186.844 96.967,-181.91C100.768,-176.978 101.847,-170.604 100.205,-162.794L77.389,-52.415Z" style="fill:rgb(48,56,70);fill-rule:nonzero;"/>
            </g>
        </g>
        <g transform="matrix(1,0,0,1,11019,5721.48)">
            <g transform="matrix(1,0,0,1,557.404,576.102)">
                <path d="M0,165.878L-39.957,165.878L-8.376,16.725L-5.903,5.06L0.127,-23.429L-65.55,-23.429L-74.489,19.114L-106.245,19.114L-111.178,42.55L-79.422,42.55L-103.469,156.012C-105.739,166.082 -104.453,174.156 -99.618,180.214C-94.791,186.278 -87.334,189.307 -77.265,189.307L1.321,189.307L0,165.878Z" style="fill:rgb(100,65,164);fill-rule:nonzero;"/>
            </g>
        </g>
        <g transform="matrix(1,0,0,1,11019,5721.48)">
            <g transform="matrix(1,0,0,1,730.658,595.22)">
                <path d="M0,170.193L-65.672,170.193L-68.447,121.17L-92.188,170.193L-157.86,170.193L-167.418,0L-102.054,0L-95.271,117.778L-71.53,68.755L-75.23,0L-9.866,0L-3.083,117.778L53.956,0L82.322,0L0,170.193Z" style="fill:rgb(48,56,70);fill-rule:nonzero;"/>
            </g>
        </g>
        <g transform="matrix(1,0,0,1,11019,5721.48)">
            <g transform="matrix(-1,0,0,1,821.01,595.22)">
                <path d="M-29.6,170.193L36.073,170.193L-0.001,0L-65.673,0L-29.6,170.193Z" style="fill:rgb(48,56,70);fill-rule:nonzero;"/>
            </g>
        </g>
        <g transform="matrix(1,0,0,1,11019,5721.48)">
            <g transform="matrix(1,0,0,1,1034.02,741.981)">
                <path d="M0,-123.33L-74.615,-123.33L-106.064,23.432L-171.737,23.432L-141.213,-120.246C-139.57,-128.056 -135.716,-134.43 -129.651,-139.362C-123.591,-144.296 -116.653,-146.762 -108.839,-146.762L4.933,-146.762L0,-123.33Z" style="fill:rgb(48,56,70);fill-rule:nonzero;"/>
            </g>
        </g>
        <g transform="matrix(1,0,0,1,11019,5721.48)">
            <g transform="matrix(1,0,0,1,1359.52,552.671)">
                <path d="M0,212.742L-65.365,212.742L-34.224,65.98L-69.68,65.98L-100.821,212.742L-166.493,212.742L-121.479,0L-55.806,0L-64.748,42.549L9.558,42.549C17.367,42.549 23.225,45.014 27.132,49.948C31.035,54.881 32.166,61.255 30.524,69.064L0,212.742Z" style="fill:rgb(100,65,164);fill-rule:nonzero;"/>
            </g>
        </g>
        <g transform="matrix(1,0,0,1,11019,5721.48)">
            <g transform="matrix(1,0,0,1,1466.3,784.529)">
                <path d="M0,-165.878L-26.208,-42.549L9.249,-42.549L35.457,-165.878L0,-165.878ZM77.388,-52.415C75.331,-42.342 70.552,-34.273 63.051,-28.212C55.545,-22.148 46.864,-19.116 36.998,-19.116L-31.141,-19.116L-40.083,23.432L-105.754,23.432L-60.74,-189.31L79.238,-189.31C87.254,-189.31 93.161,-186.844 96.966,-181.91C100.768,-176.978 101.846,-170.604 100.204,-162.794L77.388,-52.415Z" style="fill:rgb(100,65,164);fill-rule:nonzero;"/>
            </g>
        </g>
        <g transform="matrix(1,0,0,1,11019,5721.48)">
            <g transform="matrix(-1,0,0,1.30552,827.845,552.641)">
                <path d="M-60.277,26.771L5.7,26.771L0,0L-65.977,0L-60.277,26.771Z" style="fill:rgb(100,65,164);fill-rule:nonzero;"/>
            </g>
        </g>
        <g transform="matrix(1,0,0,1,11019,5721.48)">
            <g transform="matrix(1,0,0,1,1111.74,784.529)">
                <path d="M0,-165.878L-26.207,-42.549L9.25,-42.549L35.457,-165.878L0,-165.878ZM77.389,-52.415C75.331,-42.342 70.553,-34.273 63.051,-28.212C55.546,-22.148 46.865,-19.116 36.999,-19.116L-31.141,-19.116L-40.082,23.432L-105.754,23.432L-60.74,-189.31L79.239,-189.31C87.255,-189.31 93.161,-186.844 96.967,-181.91C100.768,-176.978 101.847,-170.604 100.205,-162.794L77.389,-52.415Z" style="fill:rgb(48,56,70);fill-rule:nonzero;"/>
            </g>
        </g>
        <g transform="matrix(1,0,0,1,11019,5721.48)">
            <g transform="matrix(1,0,0,1,557.404,576.102)">
                <path d="M0,165.878L-39.957,165.878L-8.376,16.725L-5.903,5.06L0.127,-23.429L-65.55,-23.429L-74.489,19.114L-106.245,19.114L-111.178,42.55L-79.422,42.55L-103.469,156.012C-105.739,166.082 -104.453,174.156 -99.618,180.214C-94.791,186.278 -87.334,189.307 -77.265,189.307L1.321,189.307L0,165.878Z" style="fill:rgb(100,65,164);fill-rule:nonzero;"/>
            </g>
        </g>
        <g transform="matrix(1,0,0,1,11019,5721.48)">
            <g transform="matrix(1,0,0,1,730.658,595.22)">
                <path d="M0,170.193L-65.672,170.193L-68.447,121.17L-92.188,170.193L-157.86,170.193L-167.418,0L-102.054,0L-95.271,117.778L-71.53,68.755L-75.23,0L-9.866,0L-3.083,117.778L53.956,0L82.322,0L0,170.193Z" style="fill:rgb(48,56,70);fill-rule:nonzero;"/>
            </g>
        </g>
        <g transform="matrix(1,0,0,1,11019,5721.48)">
            <g transform="matrix(-1,0,0,1,821.01,595.22)">
                <path d="M-29.6,170.193L36.073,170.193L-0.001,0L-65.673,0L-29.6,170.193Z" style="fill:rgb(48,56,70);fill-rule:nonzero;"/>
            </g>
        </g>
        <g transform="matrix(1,0,0,1,11019,5721.48)">
            <g transform="matrix(1,0,0,1,1034.02,741.981)">
                <path d="M0,-123.33L-74.615,-123.33L-106.064,23.432L-171.737,23.432L-141.213,-120.246C-139.57,-128.056 -135.716,-134.43 -129.651,-139.362C-123.591,-144.296 -116.653,-146.762 -108.839,-146.762L4.933,-146.762L0,-123.33Z" style="fill:rgb(48,56,70);fill-rule:nonzero;"/>
            </g>
        </g>
        <g transform="matrix(1,0,0,1,11019,5721.48)">
            <g transform="matrix(1,0,0,1,1359.52,552.671)">
                <path d="M0,212.742L-65.365,212.742L-34.224,65.98L-69.68,65.98L-100.821,212.742L-166.493,212.742L-121.479,0L-55.806,0L-64.748,42.549L9.558,42.549C17.367,42.549 23.225,45.014 27.132,49.948C31.035,54.881 32.166,61.255 30.524,69.064L0,212.742Z" style="fill:rgb(100,65,164);fill-rule:nonzero;"/>
            </g>
        </g>
        <g transform="matrix(1,0,0,1,11019,5721.48)">
            <g transform="matrix(1,0,0,1,1466.3,784.529)">
                <path d="M0,-165.878L-26.208,-42.549L9.249,-42.549L35.457,-165.878L0,-165.878ZM77.388,-52.415C75.331,-42.342 70.552,-34.273 63.051,-28.212C55.545,-22.148 46.864,-19.116 36.998,-19.116L-31.141,-19.116L-40.083,23.432L-105.754,23.432L-60.74,-189.31L79.238,-189.31C87.254,-189.31 93.161,-186.844 96.966,-181.91C100.768,-176.978 101.846,-170.604 100.204,-162.794L77.388,-52.415Z" style="fill:rgb(100,65,164);fill-rule:nonzero;"/>
            </g>
        </g>
        <g transform="matrix(1,0,0,1,11019,5721.48)">
            <g transform="matrix(-1,0,0,1.30552,827.845,552.641)">
                <path d="M-60.277,26.771L5.7,26.771L0,0L-65.977,0L-60.277,26.771Z" style="fill:rgb(100,65,164);fill-rule:nonzero;"/>
            </g>
        </g>
        <g transform="matrix(1,0,0,1,11019,5721.48)">
            <g transform="matrix(1,0,0,1,1111.74,784.529)">
                <path d="M0,-165.878L-26.207,-42.549L9.25,-42.549L35.457,-165.878L0,-165.878ZM77.389,-52.415C75.331,-42.342 70.553,-34.273 63.051,-28.212C55.546,-22.148 46.865,-19.116 36.999,-19.116L-31.141,-19.116L-40.082,23.432L-105.754,23.432L-60.74,-189.31L79.239,-189.31C87.255,-189.31 93.161,-186.844 96.967,-181.91C100.768,-176.978 101.847,-170.604 100.205,-162.794L77.389,-52.415Z" style="fill:rgb(48,56,70);fill-rule:nonzero;"/>
            </g>
        </g>
        <g transform="matrix(1,0,0,1,11019,5721.48)">
            <g transform="matrix(1,0,0,1,557.404,576.102)">
                <path d="M0,165.878L-39.957,165.878L-8.376,16.725L-5.903,5.06L0.127,-23.429L-65.55,-23.429L-74.489,19.114L-106.245,19.114L-111.178,42.55L-79.422,42.55L-103.469,156.012C-105.739,166.082 -104.453,174.156 -99.618,180.214C-94.791,186.278 -87.334,189.307 -77.265,189.307L1.321,189.307L0,165.878Z" style="fill:rgb(100,65,164);fill-rule:nonzero;"/>
            </g>
        </g>
        <g transform="matrix(1,0,0,1,11019,5721.48)">
            <g transform="matrix(1,0,0,1,730.658,595.22)">
                <path d="M0,170.193L-65.672,170.193L-68.447,121.17L-92.188,170.193L-157.86,170.193L-167.418,0L-102.054,0L-95.271,117.778L-71.53,68.755L-75.23,0L-9.866,0L-3.083,117.778L53.956,0L82.322,0L0,170.193Z" style="fill:rgb(48,56,70);fill-rule:nonzero;"/>
            </g>
        </g>
        <g transform="matrix(1,0,0,1,11019,5721.48)">
            <g transform="matrix(-1,0,0,1,821.01,595.22)">
                <path d="M-29.6,170.193L36.073,170.193L-0.001,0L-65.673,0L-29.6,170.193Z" style="fill:rgb(48,56,70);fill-rule:nonzero;"/>
            </g>
        </g>
        <g transform="matrix(1,0,0,1,11019,5721.48)">
            <g transform="matrix(1,0,0,1,1034.02,741.981)">
                <path d="M0,-123.33L-74.615,-123.33L-106.064,23.432L-171.737,23.432L-141.213,-120.246C-139.57,-128.056 -135.716,-134.43 -129.651,-139.362C-123.591,-144.296 -116.653,-146.762 -108.839,-146.762L4.933,-146.762L0,-123.33Z" style="fill:rgb(48,56,70);fill-rule:nonzero;"/>
            </g>
        </g>
        <g transform="matrix(1,0,0,1,11019,5721.48)">
            <g transform="matrix(1,0,0,1,1359.52,552.671)">
                <path d="M0,212.742L-65.365,212.742L-34.224,65.98L-69.68,65.98L-100.821,212.742L-166.493,212.742L-121.479,0L-55.806,0L-64.748,42.549L9.558,42.549C17.367,42.549 23.225,45.014 27.132,49.948C31.035,54.881 32.166,61.255 30.524,69.064L0,212.742Z" style="fill:rgb(100,65,164);fill-rule:nonzero;"/>
            </g>
        </g>
        <g transform="matrix(1,0,0,1,11019,5721.48)">
            <g transform="matrix(1,0,0,1,1466.3,784.529)">
                <path d="M0,-165.878L-26.208,-42.549L9.249,-42.549L35.457,-165.878L0,-165.878ZM77.388,-52.415C75.331,-42.342 70.552,-34.273 63.051,-28.212C55.545,-22.148 46.864,-19.116 36.998,-19.116L-31.141,-19.116L-40.083,23.432L-105.754,23.432L-60.74,-189.31L79.238,-189.31C87.254,-189.31 93.161,-186.844 96.966,-181.91C100.768,-176.978 101.846,-170.604 100.204,-162.794L77.388,-52.415Z" style="fill:rgb(100,65,164);fill-rule:nonzero;"/>
            </g>
        </g>
        <g transform="matrix(1,0,0,1,11019,5721.48)">
            <g transform="matrix(-1,0,0,1.30552,827.845,552.641)">
                <path d="M-60.277,26.771L5.7,26.771L0,0L-65.977,0L-60.277,26.771Z" style="fill:rgb(100,65,164);fill-rule:nonzero;"/>
            </g>
        </g>
        <g transform="matrix(1,0,0,1,11019,5721.48)">
            <g transform="matrix(1,0,0,1,1111.74,784.529)">
                <path d="M0,-165.878L-26.207,-42.549L9.25,-42.549L35.457,-165.878L0,-165.878ZM77.389,-52.415C75.331,-42.342 70.553,-34.273 63.051,-28.212C55.546,-22.148 46.865,-19.116 36.999,-19.116L-31.141,-19.116L-40.082,23.432L-105.754,23.432L-60.74,-189.31L79.239,-189.31C87.255,-189.31 93.161,-186.844 96.967,-181.91C100.768,-176.978 101.847,-170.604 100.205,-162.794L77.389,-52.415Z" style="fill:rgb(48,56,70);fill-rule:nonzero;"/>
            </g>
        </g>
        <g transform="matrix(1,0,0,1,11019,5721.48)">
            <g transform="matrix(1,0,0,1,557.404,576.102)">
                <path d="M0,165.878L-39.957,165.878L-8.376,16.725L-5.903,5.06L0.127,-23.429L-65.55,-23.429L-74.489,19.114L-106.245,19.114L-111.178,42.55L-79.422,42.55L-103.469,156.012C-105.739,166.082 -104.453,174.156 -99.618,180.214C-94.791,186.278 -87.334,189.307 -77.265,189.307L1.321,189.307L0,165.878Z" style="fill:rgb(100,65,164);fill-rule:nonzero;"/>
            </g>
        </g>
        <g transform="matrix(1,0,0,1,11019,5721.48)">
            <g transform="matrix(1,0,0,1,730.658,595.22)">
                <path d="M0,170.193L-65.672,170.193L-68.447,121.17L-92.188,170.193L-157.86,170.193L-167.418,0L-102.054,0L-95.271,117.778L-71.53,68.755L-75.23,0L-9.866,0L-3.083,117.778L53.956,0L82.322,0L0,170.193Z" style="fill:rgb(48,56,70);fill-rule:nonzero;"/>
            </g>
        </g>
        <g transform="matrix(1,0,0,1,11019,5721.48)">
            <g transform="matrix(-1,0,0,1,821.01,595.22)">
                <path d="M-29.6,170.193L36.073,170.193L-0.001,0L-65.673,0L-29.6,170.193Z" style="fill:rgb(48,56,70);fill-rule:nonzero;"/>
            </g>
        </g>
        <g transform="matrix(1,0,0,1,11019,5721.48)">
            <g transform="matrix(1,0,0,1,1034.02,741.981)">
                <path d="M0,-123.33L-74.615,-123.33L-106.064,23.432L-171.737,23.432L-141.213,-120.246C-139.57,-128.056 -135.716,-134.43 -129.651,-139.362C-123.591,-144.296 -116.653,-146.762 -108.839,-146.762L4.933,-146.762L0,-123.33Z" style="fill:rgb(48,56,70);fill-rule:nonzero;"/>
            </g>
        </g>
        <g transform="matrix(1,0,0,1,11019,5721.48)">
            <g transform="matrix(1,0,0,1,1359.52,552.671)">
                <path d="M0,212.742L-65.365,212.742L-34.224,65.98L-69.68,65.98L-100.821,212.742L-166.493,212.742L-121.479,0L-55.806,0L-64.748,42.549L9.558,42.549C17.367,42.549 23.225,45.014 27.132,49.948C31.035,54.881 32.166,61.255 30.524,69.064L0,212.742Z" style="fill:rgb(100,65,164);fill-rule:nonzero;"/>
            </g>
        </g>
        <g transform="matrix(1,0,0,1,11019,5721.48)">
            <g transform="matrix(1,0,0,1,1466.3,784.529)">
                <path d="M0,-165.878L-26.208,-42.549L9.249,-42.549L35.457,-165.878L0,-165.878ZM77.388,-52.415C75.331,-42.342 70.552,-34.273 63.051,-28.212C55.545,-22.148 46.864,-19.116 36.998,-19.116L-31.141,-19.116L-40.083,23.432L-105.754,23.432L-60.74,-189.31L79.238,-189.31C87.254,-189.31 93.161,-186.844 96.966,-181.91C100.768,-176.978 101.846,-170.604 100.204,-162.794L77.388,-52.415Z" style="fill:rgb(100,65,164);fill-rule:nonzero;"/>
            </g>
        </g>
        <g transform="matrix(1,0,0,1,11019,5721.48)">
            <g transform="matrix(-1,0,0,1.30552,827.845,552.641)">
                <path d="M-60.277,26.771L5.7,26.771L0,0L-65.977,0L-60.277,26.771Z" style="fill:rgb(100,65,164);fill-rule:nonzero;"/>
            </g>
        </g>
    </g>
</svg>
